<mxfile host="app.diagrams.net" agent="Mozilla/5.0 (X11; Linux x86_64) AppleWebKit/537.36 (KHTML, like Gecko) Chrome/132.0.0.0 Safari/537.36" version="26.0.14">
  <diagram name="Page-1" id="XCLP3iwug7xY9eBpBQR5">
    <mxGraphModel dx="2617" dy="693" grid="1" gridSize="10" guides="1" tooltips="1" connect="1" arrows="1" fold="1" page="1" pageScale="1" pageWidth="850" pageHeight="1100" math="0" shadow="0">
      <root>
        <mxCell id="0" />
        <mxCell id="1" parent="0" />
        <mxCell id="fUT23RtCe5cPwZf2VjJ1-1" value="User" style="swimlane;fontStyle=1;childLayout=stackLayout;horizontal=1;startSize=30;horizontalStack=0;resizeParent=1;resizeParentMax=0;resizeLast=0;collapsible=1;marginBottom=0;whiteSpace=wrap;html=1;fillColor=#f8cecc;strokeColor=#b85450;strokeWidth=2;shadow=1;glass=0;rounded=1;gradientColor=#ea6b66;fontSize=17;labelBackgroundColor=none;textShadow=1;verticalAlign=bottom;" parent="1" vertex="1">
          <mxGeometry x="130" y="120" width="280" height="300" as="geometry" />
        </mxCell>
        <mxCell id="fUT23RtCe5cPwZf2VjJ1-2" value="&lt;font style=&quot;font-size: 18px;&quot;&gt;&lt;u&gt;id&lt;/u&gt;&lt;/font&gt;" style="text;strokeColor=#d6b656;fillColor=#fff2cc;align=left;verticalAlign=middle;spacingLeft=4;spacingRight=4;overflow=hidden;points=[[0,0.5],[1,0.5]];portConstraint=eastwest;rotatable=0;whiteSpace=wrap;html=1;" parent="fUT23RtCe5cPwZf2VjJ1-1" vertex="1">
          <mxGeometry y="30" width="280" height="30" as="geometry" />
        </mxCell>
        <mxCell id="fUT23RtCe5cPwZf2VjJ1-3" value="&lt;font style=&quot;font-size: 16px;&quot;&gt;first_name&lt;/font&gt;" style="text;strokeColor=#d6b656;fillColor=#fff2cc;align=left;verticalAlign=middle;spacingLeft=4;spacingRight=4;overflow=hidden;points=[[0,0.5],[1,0.5]];portConstraint=eastwest;rotatable=0;whiteSpace=wrap;html=1;fillStyle=auto;" parent="fUT23RtCe5cPwZf2VjJ1-1" vertex="1">
          <mxGeometry y="60" width="280" height="30" as="geometry" />
        </mxCell>
        <mxCell id="fUT23RtCe5cPwZf2VjJ1-4" value="&lt;font style=&quot;font-size: 17px;&quot;&gt;last_name&lt;/font&gt;" style="text;strokeColor=#d6b656;fillColor=#fff2cc;align=left;verticalAlign=middle;spacingLeft=4;spacingRight=4;overflow=hidden;points=[[0,0.5],[1,0.5]];portConstraint=eastwest;rotatable=0;whiteSpace=wrap;html=1;" parent="fUT23RtCe5cPwZf2VjJ1-1" vertex="1">
          <mxGeometry y="90" width="280" height="30" as="geometry" />
        </mxCell>
        <mxCell id="fUT23RtCe5cPwZf2VjJ1-12" value="&lt;span style=&quot;font-size: 17px;&quot;&gt;email&lt;/span&gt;" style="text;strokeColor=#d6b656;fillColor=#fff2cc;align=left;verticalAlign=middle;spacingLeft=4;spacingRight=4;overflow=hidden;points=[[0,0.5],[1,0.5]];portConstraint=eastwest;rotatable=0;whiteSpace=wrap;html=1;" parent="fUT23RtCe5cPwZf2VjJ1-1" vertex="1">
          <mxGeometry y="120" width="280" height="30" as="geometry" />
        </mxCell>
        <mxCell id="fUT23RtCe5cPwZf2VjJ1-13" value="&lt;span style=&quot;font-size: 17px;&quot;&gt;password&lt;/span&gt;" style="text;strokeColor=#d6b656;fillColor=#fff2cc;align=left;verticalAlign=middle;spacingLeft=4;spacingRight=4;overflow=hidden;points=[[0,0.5],[1,0.5]];portConstraint=eastwest;rotatable=0;whiteSpace=wrap;html=1;" parent="fUT23RtCe5cPwZf2VjJ1-1" vertex="1">
          <mxGeometry y="150" width="280" height="30" as="geometry" />
        </mxCell>
        <mxCell id="fUT23RtCe5cPwZf2VjJ1-14" value="&lt;span style=&quot;font-size: 17px;&quot;&gt;phone&lt;/span&gt;" style="text;strokeColor=#d6b656;fillColor=#fff2cc;align=left;verticalAlign=middle;spacingLeft=4;spacingRight=4;overflow=hidden;points=[[0,0.5],[1,0.5]];portConstraint=eastwest;rotatable=0;whiteSpace=wrap;html=1;" parent="fUT23RtCe5cPwZf2VjJ1-1" vertex="1">
          <mxGeometry y="180" width="280" height="30" as="geometry" />
        </mxCell>
        <mxCell id="fUT23RtCe5cPwZf2VjJ1-68" value="&lt;span style=&quot;font-size: 17px;&quot;&gt;user_img&lt;/span&gt;" style="text;strokeColor=#d6b656;fillColor=#fff2cc;align=left;verticalAlign=middle;spacingLeft=4;spacingRight=4;overflow=hidden;points=[[0,0.5],[1,0.5]];portConstraint=eastwest;rotatable=0;whiteSpace=wrap;html=1;" parent="fUT23RtCe5cPwZf2VjJ1-1" vertex="1">
          <mxGeometry y="210" width="280" height="30" as="geometry" />
        </mxCell>
        <mxCell id="fUT23RtCe5cPwZf2VjJ1-16" value="&lt;span style=&quot;font-size: 17px;&quot;&gt;role&lt;/span&gt;" style="text;strokeColor=#d6b656;fillColor=#fff2cc;align=left;verticalAlign=middle;spacingLeft=4;spacingRight=4;overflow=hidden;points=[[0,0.5],[1,0.5]];portConstraint=eastwest;rotatable=0;whiteSpace=wrap;html=1;" parent="fUT23RtCe5cPwZf2VjJ1-1" vertex="1">
          <mxGeometry y="240" width="280" height="30" as="geometry" />
        </mxCell>
        <mxCell id="fUT23RtCe5cPwZf2VjJ1-66" value="&lt;b&gt;Room_id (FK)&lt;/b&gt;" style="text;strokeColor=#d6b656;fillColor=#fff2cc;align=left;verticalAlign=middle;spacingLeft=4;spacingRight=4;overflow=hidden;points=[[0,0.5],[1,0.5]];portConstraint=eastwest;rotatable=0;whiteSpace=wrap;html=1;" parent="fUT23RtCe5cPwZf2VjJ1-1" vertex="1">
          <mxGeometry y="270" width="280" height="30" as="geometry" />
        </mxCell>
        <mxCell id="fUT23RtCe5cPwZf2VjJ1-17" value="Product" style="swimlane;fontStyle=1;childLayout=stackLayout;horizontal=1;startSize=30;horizontalStack=0;resizeParent=1;resizeParentMax=0;resizeLast=0;collapsible=1;marginBottom=0;whiteSpace=wrap;html=1;fillColor=#f8cecc;strokeColor=#b85450;strokeWidth=2;shadow=1;glass=0;rounded=1;gradientColor=#ea6b66;fontSize=17;labelBackgroundColor=none;textShadow=1;verticalAlign=bottom;" parent="1" vertex="1">
          <mxGeometry x="130" y="470" width="280" height="210" as="geometry" />
        </mxCell>
        <mxCell id="fUT23RtCe5cPwZf2VjJ1-18" value="&lt;font style=&quot;font-size: 18px;&quot;&gt;&lt;u&gt;id&lt;/u&gt;&lt;/font&gt;" style="text;strokeColor=#d6b656;fillColor=#fff2cc;align=left;verticalAlign=middle;spacingLeft=4;spacingRight=4;overflow=hidden;points=[[0,0.5],[1,0.5]];portConstraint=eastwest;rotatable=0;whiteSpace=wrap;html=1;" parent="fUT23RtCe5cPwZf2VjJ1-17" vertex="1">
          <mxGeometry y="30" width="280" height="30" as="geometry" />
        </mxCell>
        <mxCell id="fUT23RtCe5cPwZf2VjJ1-19" value="&lt;font style=&quot;font-size: 16px;&quot;&gt;Name&lt;/font&gt;" style="text;strokeColor=#d6b656;fillColor=#fff2cc;align=left;verticalAlign=middle;spacingLeft=4;spacingRight=4;overflow=hidden;points=[[0,0.5],[1,0.5]];portConstraint=eastwest;rotatable=0;whiteSpace=wrap;html=1;fillStyle=auto;" parent="fUT23RtCe5cPwZf2VjJ1-17" vertex="1">
          <mxGeometry y="60" width="280" height="30" as="geometry" />
        </mxCell>
        <mxCell id="fUT23RtCe5cPwZf2VjJ1-20" value="&lt;font style=&quot;font-size: 17px;&quot;&gt;Price&lt;/font&gt;" style="text;strokeColor=#d6b656;fillColor=#fff2cc;align=left;verticalAlign=middle;spacingLeft=4;spacingRight=4;overflow=hidden;points=[[0,0.5],[1,0.5]];portConstraint=eastwest;rotatable=0;whiteSpace=wrap;html=1;" parent="fUT23RtCe5cPwZf2VjJ1-17" vertex="1">
          <mxGeometry y="90" width="280" height="30" as="geometry" />
        </mxCell>
        <mxCell id="fUT23RtCe5cPwZf2VjJ1-21" value="&lt;span style=&quot;font-size: 17px;&quot;&gt;product_img&lt;/span&gt;" style="text;strokeColor=#d6b656;fillColor=#fff2cc;align=left;verticalAlign=middle;spacingLeft=4;spacingRight=4;overflow=hidden;points=[[0,0.5],[1,0.5]];portConstraint=eastwest;rotatable=0;whiteSpace=wrap;html=1;" parent="fUT23RtCe5cPwZf2VjJ1-17" vertex="1">
          <mxGeometry y="120" width="280" height="30" as="geometry" />
        </mxCell>
        <mxCell id="fUT23RtCe5cPwZf2VjJ1-22" value="&lt;span style=&quot;font-size: 17px;&quot;&gt;status&lt;/span&gt;" style="text;strokeColor=#d6b656;fillColor=#fff2cc;align=left;verticalAlign=middle;spacingLeft=4;spacingRight=4;overflow=hidden;points=[[0,0.5],[1,0.5]];portConstraint=eastwest;rotatable=0;whiteSpace=wrap;html=1;" parent="fUT23RtCe5cPwZf2VjJ1-17" vertex="1">
          <mxGeometry y="150" width="280" height="30" as="geometry" />
        </mxCell>
        <mxCell id="fUT23RtCe5cPwZf2VjJ1-76" value="&lt;b&gt;category_id (FK)&lt;/b&gt;" style="text;strokeColor=#d6b656;fillColor=#fff2cc;align=left;verticalAlign=middle;spacingLeft=4;spacingRight=4;overflow=hidden;points=[[0,0.5],[1,0.5]];portConstraint=eastwest;rotatable=0;whiteSpace=wrap;html=1;" parent="fUT23RtCe5cPwZf2VjJ1-17" vertex="1">
          <mxGeometry y="180" width="280" height="30" as="geometry" />
        </mxCell>
        <mxCell id="fUT23RtCe5cPwZf2VjJ1-28" value="Order" style="swimlane;fontStyle=1;childLayout=stackLayout;horizontal=1;startSize=30;horizontalStack=0;resizeParent=1;resizeParentMax=0;resizeLast=0;collapsible=1;marginBottom=0;whiteSpace=wrap;html=1;fillColor=#f8cecc;strokeColor=#b85450;strokeWidth=2;shadow=1;glass=0;rounded=1;gradientColor=#ea6b66;fontSize=17;labelBackgroundColor=none;textShadow=1;verticalAlign=bottom;" parent="1" vertex="1">
          <mxGeometry x="130" y="740" width="280" height="210" as="geometry" />
        </mxCell>
        <mxCell id="fUT23RtCe5cPwZf2VjJ1-29" value="&lt;font style=&quot;font-size: 18px;&quot;&gt;&lt;u&gt;id&lt;/u&gt;&lt;/font&gt;" style="text;strokeColor=#d6b656;fillColor=#fff2cc;align=left;verticalAlign=middle;spacingLeft=4;spacingRight=4;overflow=hidden;points=[[0,0.5],[1,0.5]];portConstraint=eastwest;rotatable=0;whiteSpace=wrap;html=1;" parent="fUT23RtCe5cPwZf2VjJ1-28" vertex="1">
          <mxGeometry y="30" width="280" height="30" as="geometry" />
        </mxCell>
        <mxCell id="fUT23RtCe5cPwZf2VjJ1-30" value="&lt;font style=&quot;font-size: 16px;&quot;&gt;status&lt;/font&gt;" style="text;strokeColor=#d6b656;fillColor=#fff2cc;align=left;verticalAlign=middle;spacingLeft=4;spacingRight=4;overflow=hidden;points=[[0,0.5],[1,0.5]];portConstraint=eastwest;rotatable=0;whiteSpace=wrap;html=1;fillStyle=auto;" parent="fUT23RtCe5cPwZf2VjJ1-28" vertex="1">
          <mxGeometry y="60" width="280" height="30" as="geometry" />
        </mxCell>
        <mxCell id="fUT23RtCe5cPwZf2VjJ1-31" value="&lt;font style=&quot;font-size: 17px;&quot;&gt;date&lt;/font&gt;" style="text;strokeColor=#d6b656;fillColor=#fff2cc;align=left;verticalAlign=middle;spacingLeft=4;spacingRight=4;overflow=hidden;points=[[0,0.5],[1,0.5]];portConstraint=eastwest;rotatable=0;whiteSpace=wrap;html=1;" parent="fUT23RtCe5cPwZf2VjJ1-28" vertex="1">
          <mxGeometry y="90" width="280" height="30" as="geometry" />
        </mxCell>
        <mxCell id="fUT23RtCe5cPwZf2VjJ1-32" value="&lt;span style=&quot;font-size: 17px;&quot;&gt;note&lt;/span&gt;" style="text;strokeColor=#d6b656;fillColor=#fff2cc;align=left;verticalAlign=middle;spacingLeft=4;spacingRight=4;overflow=hidden;points=[[0,0.5],[1,0.5]];portConstraint=eastwest;rotatable=0;whiteSpace=wrap;html=1;" parent="fUT23RtCe5cPwZf2VjJ1-28" vertex="1">
          <mxGeometry y="120" width="280" height="30" as="geometry" />
        </mxCell>
        <mxCell id="fUT23RtCe5cPwZf2VjJ1-70" value="&lt;b&gt;user_id (FK)&lt;/b&gt;" style="text;strokeColor=#d6b656;fillColor=#fff2cc;align=left;verticalAlign=middle;spacingLeft=4;spacingRight=4;overflow=hidden;points=[[0,0.5],[1,0.5]];portConstraint=eastwest;rotatable=0;whiteSpace=wrap;html=1;" parent="fUT23RtCe5cPwZf2VjJ1-28" vertex="1">
          <mxGeometry y="150" width="280" height="30" as="geometry" />
        </mxCell>
        <mxCell id="fUT23RtCe5cPwZf2VjJ1-74" value="&lt;b&gt;room_id (FK)&lt;/b&gt;" style="text;strokeColor=#d6b656;fillColor=#fff2cc;align=left;verticalAlign=middle;spacingLeft=4;spacingRight=4;overflow=hidden;points=[[0,0.5],[1,0.5]];portConstraint=eastwest;rotatable=0;whiteSpace=wrap;html=1;" parent="fUT23RtCe5cPwZf2VjJ1-28" vertex="1">
          <mxGeometry y="180" width="280" height="30" as="geometry" />
        </mxCell>
        <mxCell id="fUT23RtCe5cPwZf2VjJ1-34" value="Category" style="swimlane;fontStyle=1;childLayout=stackLayout;horizontal=1;startSize=30;horizontalStack=0;resizeParent=1;resizeParentMax=0;resizeLast=0;collapsible=1;marginBottom=0;whiteSpace=wrap;html=1;fillColor=#f8cecc;strokeColor=#b85450;strokeWidth=2;shadow=1;glass=0;rounded=1;gradientColor=#ea6b66;fontSize=17;labelBackgroundColor=none;textShadow=1;verticalAlign=bottom;" parent="1" vertex="1">
          <mxGeometry x="-240" y="520" width="280" height="90" as="geometry" />
        </mxCell>
        <mxCell id="fUT23RtCe5cPwZf2VjJ1-35" value="&lt;font style=&quot;font-size: 18px;&quot;&gt;&lt;u&gt;id&lt;/u&gt;&lt;/font&gt;" style="text;strokeColor=#d6b656;fillColor=#fff2cc;align=left;verticalAlign=middle;spacingLeft=4;spacingRight=4;overflow=hidden;points=[[0,0.5],[1,0.5]];portConstraint=eastwest;rotatable=0;whiteSpace=wrap;html=1;" parent="fUT23RtCe5cPwZf2VjJ1-34" vertex="1">
          <mxGeometry y="30" width="280" height="30" as="geometry" />
        </mxCell>
        <mxCell id="fUT23RtCe5cPwZf2VjJ1-36" value="&lt;font style=&quot;font-size: 16px;&quot;&gt;name&lt;/font&gt;" style="text;strokeColor=#d6b656;fillColor=#fff2cc;align=left;verticalAlign=middle;spacingLeft=4;spacingRight=4;overflow=hidden;points=[[0,0.5],[1,0.5]];portConstraint=eastwest;rotatable=0;whiteSpace=wrap;html=1;fillStyle=auto;" parent="fUT23RtCe5cPwZf2VjJ1-34" vertex="1">
          <mxGeometry y="60" width="280" height="30" as="geometry" />
        </mxCell>
        <mxCell id="fUT23RtCe5cPwZf2VjJ1-39" value="Room" style="swimlane;fontStyle=1;childLayout=stackLayout;horizontal=1;startSize=30;horizontalStack=0;resizeParent=1;resizeParentMax=0;resizeLast=0;collapsible=1;marginBottom=0;whiteSpace=wrap;html=1;fillColor=#f8cecc;strokeColor=#b85450;strokeWidth=2;shadow=1;glass=0;rounded=1;gradientColor=#ea6b66;fontSize=17;labelBackgroundColor=none;textShadow=1;verticalAlign=bottom;" parent="1" vertex="1">
          <mxGeometry x="-230" y="200" width="280" height="90" as="geometry" />
        </mxCell>
        <mxCell id="fUT23RtCe5cPwZf2VjJ1-40" value="&lt;font style=&quot;font-size: 18px;&quot;&gt;&lt;u&gt;id&lt;/u&gt;&lt;/font&gt;" style="text;strokeColor=#d6b656;fillColor=#fff2cc;align=left;verticalAlign=middle;spacingLeft=4;spacingRight=4;overflow=hidden;points=[[0,0.5],[1,0.5]];portConstraint=eastwest;rotatable=0;whiteSpace=wrap;html=1;" parent="fUT23RtCe5cPwZf2VjJ1-39" vertex="1">
          <mxGeometry y="30" width="280" height="30" as="geometry" />
        </mxCell>
        <mxCell id="fUT23RtCe5cPwZf2VjJ1-41" value="&lt;font style=&quot;font-size: 16px;&quot;&gt;name&lt;/font&gt;" style="text;strokeColor=#d6b656;fillColor=#fff2cc;align=left;verticalAlign=middle;spacingLeft=4;spacingRight=4;overflow=hidden;points=[[0,0.5],[1,0.5]];portConstraint=eastwest;rotatable=0;whiteSpace=wrap;html=1;fillStyle=auto;" parent="fUT23RtCe5cPwZf2VjJ1-39" vertex="1">
          <mxGeometry y="60" width="280" height="30" as="geometry" />
        </mxCell>
        <mxCell id="fUT23RtCe5cPwZf2VjJ1-48" value="Payment" style="swimlane;fontStyle=1;childLayout=stackLayout;horizontal=1;startSize=30;horizontalStack=0;resizeParent=1;resizeParentMax=0;resizeLast=0;collapsible=1;marginBottom=0;whiteSpace=wrap;html=1;fillColor=#f8cecc;strokeColor=#b85450;strokeWidth=2;shadow=1;glass=0;rounded=1;gradientColor=#ea6b66;fontSize=17;labelBackgroundColor=none;textShadow=1;verticalAlign=bottom;" parent="1" vertex="1">
          <mxGeometry x="500" y="670" width="280" height="180" as="geometry" />
        </mxCell>
        <mxCell id="fUT23RtCe5cPwZf2VjJ1-49" value="&lt;font style=&quot;font-size: 18px;&quot;&gt;&lt;u&gt;id&lt;/u&gt;&lt;/font&gt;" style="text;strokeColor=#d6b656;fillColor=#fff2cc;align=left;verticalAlign=middle;spacingLeft=4;spacingRight=4;overflow=hidden;points=[[0,0.5],[1,0.5]];portConstraint=eastwest;rotatable=0;whiteSpace=wrap;html=1;" parent="fUT23RtCe5cPwZf2VjJ1-48" vertex="1">
          <mxGeometry y="30" width="280" height="30" as="geometry" />
        </mxCell>
        <mxCell id="fUT23RtCe5cPwZf2VjJ1-50" value="&lt;font style=&quot;font-size: 16px;&quot;&gt;date&lt;/font&gt;" style="text;strokeColor=#d6b656;fillColor=#fff2cc;align=left;verticalAlign=middle;spacingLeft=4;spacingRight=4;overflow=hidden;points=[[0,0.5],[1,0.5]];portConstraint=eastwest;rotatable=0;whiteSpace=wrap;html=1;fillStyle=auto;" parent="fUT23RtCe5cPwZf2VjJ1-48" vertex="1">
          <mxGeometry y="60" width="280" height="30" as="geometry" />
        </mxCell>
        <mxCell id="fUT23RtCe5cPwZf2VjJ1-51" value="&lt;font style=&quot;font-size: 17px;&quot;&gt;status&lt;/font&gt;" style="text;strokeColor=#d6b656;fillColor=#fff2cc;align=left;verticalAlign=middle;spacingLeft=4;spacingRight=4;overflow=hidden;points=[[0,0.5],[1,0.5]];portConstraint=eastwest;rotatable=0;whiteSpace=wrap;html=1;" parent="fUT23RtCe5cPwZf2VjJ1-48" vertex="1">
          <mxGeometry y="90" width="280" height="30" as="geometry" />
        </mxCell>
        <mxCell id="fUT23RtCe5cPwZf2VjJ1-52" value="&lt;span style=&quot;font-size: 17px;&quot;&gt;method&lt;/span&gt;" style="text;strokeColor=#d6b656;fillColor=#fff2cc;align=left;verticalAlign=middle;spacingLeft=4;spacingRight=4;overflow=hidden;points=[[0,0.5],[1,0.5]];portConstraint=eastwest;rotatable=0;whiteSpace=wrap;html=1;" parent="fUT23RtCe5cPwZf2VjJ1-48" vertex="1">
          <mxGeometry y="120" width="280" height="30" as="geometry" />
        </mxCell>
        <mxCell id="fUT23RtCe5cPwZf2VjJ1-86" value="&lt;b&gt;order_id (FK)&lt;/b&gt;" style="text;strokeColor=#d6b656;fillColor=#fff2cc;align=left;verticalAlign=middle;spacingLeft=4;spacingRight=4;overflow=hidden;points=[[0,0.5],[1,0.5]];portConstraint=eastwest;rotatable=0;whiteSpace=wrap;html=1;" parent="fUT23RtCe5cPwZf2VjJ1-48" vertex="1">
          <mxGeometry y="150" width="280" height="30" as="geometry" />
        </mxCell>
        <mxCell id="fUT23RtCe5cPwZf2VjJ1-57" value="Wallet_Transaction" style="swimlane;fontStyle=1;childLayout=stackLayout;horizontal=1;startSize=30;horizontalStack=0;resizeParent=1;resizeParentMax=0;resizeLast=0;collapsible=1;marginBottom=0;whiteSpace=wrap;html=1;fillColor=#f8cecc;strokeColor=#b85450;strokeWidth=2;shadow=1;glass=0;rounded=1;gradientColor=#ea6b66;fontSize=17;labelBackgroundColor=none;textShadow=1;verticalAlign=bottom;" parent="1" vertex="1">
          <mxGeometry x="500" y="110" width="280" height="240" as="geometry" />
        </mxCell>
        <mxCell id="fUT23RtCe5cPwZf2VjJ1-58" value="&lt;font style=&quot;font-size: 18px;&quot;&gt;&lt;u&gt;id&lt;/u&gt;&lt;/font&gt;" style="text;strokeColor=#d6b656;fillColor=#fff2cc;align=left;verticalAlign=middle;spacingLeft=4;spacingRight=4;overflow=hidden;points=[[0,0.5],[1,0.5]];portConstraint=eastwest;rotatable=0;whiteSpace=wrap;html=1;" parent="fUT23RtCe5cPwZf2VjJ1-57" vertex="1">
          <mxGeometry y="30" width="280" height="30" as="geometry" />
        </mxCell>
        <mxCell id="fUT23RtCe5cPwZf2VjJ1-59" value="&lt;font style=&quot;font-size: 16px;&quot;&gt;type&lt;/font&gt;" style="text;strokeColor=#d6b656;fillColor=#fff2cc;align=left;verticalAlign=middle;spacingLeft=4;spacingRight=4;overflow=hidden;points=[[0,0.5],[1,0.5]];portConstraint=eastwest;rotatable=0;whiteSpace=wrap;html=1;fillStyle=auto;" parent="fUT23RtCe5cPwZf2VjJ1-57" vertex="1">
          <mxGeometry y="60" width="280" height="30" as="geometry" />
        </mxCell>
        <mxCell id="fUT23RtCe5cPwZf2VjJ1-60" value="&lt;font style=&quot;font-size: 17px;&quot;&gt;amount&lt;/font&gt;" style="text;strokeColor=#d6b656;fillColor=#fff2cc;align=left;verticalAlign=middle;spacingLeft=4;spacingRight=4;overflow=hidden;points=[[0,0.5],[1,0.5]];portConstraint=eastwest;rotatable=0;whiteSpace=wrap;html=1;" parent="fUT23RtCe5cPwZf2VjJ1-57" vertex="1">
          <mxGeometry y="90" width="280" height="30" as="geometry" />
        </mxCell>
        <mxCell id="WcKQ3TxuClEvSnNjuLhm-4" value="&lt;span style=&quot;font-size: 17px;&quot;&gt;balance_before&lt;/span&gt;" style="text;strokeColor=#d6b656;fillColor=#fff2cc;align=left;verticalAlign=middle;spacingLeft=4;spacingRight=4;overflow=hidden;points=[[0,0.5],[1,0.5]];portConstraint=eastwest;rotatable=0;whiteSpace=wrap;html=1;" vertex="1" parent="fUT23RtCe5cPwZf2VjJ1-57">
          <mxGeometry y="120" width="280" height="30" as="geometry" />
        </mxCell>
        <mxCell id="WcKQ3TxuClEvSnNjuLhm-3" value="&lt;span style=&quot;font-size: 17px;&quot;&gt;balance_after&lt;/span&gt;" style="text;strokeColor=#d6b656;fillColor=#fff2cc;align=left;verticalAlign=middle;spacingLeft=4;spacingRight=4;overflow=hidden;points=[[0,0.5],[1,0.5]];portConstraint=eastwest;rotatable=0;whiteSpace=wrap;html=1;" vertex="1" parent="fUT23RtCe5cPwZf2VjJ1-57">
          <mxGeometry y="150" width="280" height="30" as="geometry" />
        </mxCell>
        <mxCell id="fUT23RtCe5cPwZf2VjJ1-72" value="&lt;b&gt;user_id (FK)&lt;/b&gt;" style="text;strokeColor=#d6b656;fillColor=#fff2cc;align=left;verticalAlign=middle;spacingLeft=4;spacingRight=4;overflow=hidden;points=[[0,0.5],[1,0.5]];portConstraint=eastwest;rotatable=0;whiteSpace=wrap;html=1;" parent="fUT23RtCe5cPwZf2VjJ1-57" vertex="1">
          <mxGeometry y="180" width="280" height="30" as="geometry" />
        </mxCell>
        <mxCell id="WcKQ3TxuClEvSnNjuLhm-1" value="&lt;i&gt;made_at&lt;/i&gt;" style="text;strokeColor=#d6b656;fillColor=#fff2cc;align=left;verticalAlign=middle;spacingLeft=4;spacingRight=4;overflow=hidden;points=[[0,0.5],[1,0.5]];portConstraint=eastwest;rotatable=0;whiteSpace=wrap;html=1;" vertex="1" parent="fUT23RtCe5cPwZf2VjJ1-57">
          <mxGeometry y="210" width="280" height="30" as="geometry" />
        </mxCell>
        <mxCell id="fUT23RtCe5cPwZf2VjJ1-67" style="edgeStyle=orthogonalEdgeStyle;rounded=0;orthogonalLoop=1;jettySize=auto;html=1;entryX=0;entryY=0.5;entryDx=0;entryDy=0;curved=1;strokeWidth=2;fillColor=#f8cecc;gradientColor=#ea6b66;strokeColor=#b85450;" parent="1" source="fUT23RtCe5cPwZf2VjJ1-40" target="fUT23RtCe5cPwZf2VjJ1-66" edge="1">
          <mxGeometry relative="1" as="geometry" />
        </mxCell>
        <mxCell id="fUT23RtCe5cPwZf2VjJ1-71" style="edgeStyle=orthogonalEdgeStyle;rounded=0;orthogonalLoop=1;jettySize=auto;html=1;entryX=1;entryY=0.5;entryDx=0;entryDy=0;" parent="1" source="fUT23RtCe5cPwZf2VjJ1-2" target="fUT23RtCe5cPwZf2VjJ1-70" edge="1">
          <mxGeometry relative="1" as="geometry">
            <Array as="points">
              <mxPoint x="440" y="165" />
              <mxPoint x="440" y="905" />
            </Array>
          </mxGeometry>
        </mxCell>
        <mxCell id="fUT23RtCe5cPwZf2VjJ1-73" style="rounded=0;orthogonalLoop=1;jettySize=auto;html=1;entryX=0;entryY=0.5;entryDx=0;entryDy=0;strokeWidth=3;exitX=1;exitY=0.5;exitDx=0;exitDy=0;fillColor=#fff2cc;gradientColor=#ffd966;strokeColor=#d6b656;" parent="1" source="fUT23RtCe5cPwZf2VjJ1-2" target="fUT23RtCe5cPwZf2VjJ1-72" edge="1">
          <mxGeometry relative="1" as="geometry" />
        </mxCell>
        <mxCell id="fUT23RtCe5cPwZf2VjJ1-75" style="edgeStyle=orthogonalEdgeStyle;rounded=0;orthogonalLoop=1;jettySize=auto;html=1;entryX=0;entryY=0.5;entryDx=0;entryDy=0;curved=1;strokeWidth=2;" parent="1" source="fUT23RtCe5cPwZf2VjJ1-40" target="fUT23RtCe5cPwZf2VjJ1-74" edge="1">
          <mxGeometry relative="1" as="geometry" />
        </mxCell>
        <mxCell id="fUT23RtCe5cPwZf2VjJ1-77" style="edgeStyle=orthogonalEdgeStyle;rounded=0;orthogonalLoop=1;jettySize=auto;html=1;curved=1;strokeWidth=2;fillColor=#ffcd28;gradientColor=#ffa500;strokeColor=#d79b00;" parent="1" source="fUT23RtCe5cPwZf2VjJ1-35" target="fUT23RtCe5cPwZf2VjJ1-76" edge="1">
          <mxGeometry relative="1" as="geometry" />
        </mxCell>
        <mxCell id="fUT23RtCe5cPwZf2VjJ1-78" value="Order_Product" style="swimlane;fontStyle=1;childLayout=stackLayout;horizontal=1;startSize=30;horizontalStack=0;resizeParent=1;resizeParentMax=0;resizeLast=0;collapsible=1;marginBottom=0;whiteSpace=wrap;html=1;fillColor=#f8cecc;strokeColor=#b85450;strokeWidth=2;shadow=1;glass=0;rounded=1;gradientColor=#ea6b66;fontSize=17;labelBackgroundColor=none;textShadow=1;verticalAlign=bottom;" parent="1" vertex="1">
          <mxGeometry x="500" y="365" width="280" height="150" as="geometry" />
        </mxCell>
        <mxCell id="fUT23RtCe5cPwZf2VjJ1-79" value="&lt;font style=&quot;font-size: 18px;&quot;&gt;&lt;u&gt;id&lt;/u&gt;&lt;/font&gt;" style="text;strokeColor=#d6b656;fillColor=#fff2cc;align=left;verticalAlign=middle;spacingLeft=4;spacingRight=4;overflow=hidden;points=[[0,0.5],[1,0.5]];portConstraint=eastwest;rotatable=0;whiteSpace=wrap;html=1;" parent="fUT23RtCe5cPwZf2VjJ1-78" vertex="1">
          <mxGeometry y="30" width="280" height="30" as="geometry" />
        </mxCell>
        <mxCell id="fUT23RtCe5cPwZf2VjJ1-80" value="&lt;font style=&quot;font-size: 16px;&quot;&gt;quantity&lt;/font&gt;" style="text;strokeColor=#d6b656;fillColor=#fff2cc;align=left;verticalAlign=middle;spacingLeft=4;spacingRight=4;overflow=hidden;points=[[0,0.5],[1,0.5]];portConstraint=eastwest;rotatable=0;whiteSpace=wrap;html=1;fillStyle=auto;" parent="fUT23RtCe5cPwZf2VjJ1-78" vertex="1">
          <mxGeometry y="60" width="280" height="30" as="geometry" />
        </mxCell>
        <mxCell id="fUT23RtCe5cPwZf2VjJ1-81" value="&lt;b&gt;product_id (FK)&lt;/b&gt;" style="text;strokeColor=#d6b656;fillColor=#fff2cc;align=left;verticalAlign=middle;spacingLeft=4;spacingRight=4;overflow=hidden;points=[[0,0.5],[1,0.5]];portConstraint=eastwest;rotatable=0;whiteSpace=wrap;html=1;" parent="fUT23RtCe5cPwZf2VjJ1-78" vertex="1">
          <mxGeometry y="90" width="280" height="30" as="geometry" />
        </mxCell>
        <mxCell id="fUT23RtCe5cPwZf2VjJ1-82" value="&lt;b&gt;order_id (FK)&lt;/b&gt;" style="text;strokeColor=#d6b656;fillColor=#fff2cc;align=left;verticalAlign=middle;spacingLeft=4;spacingRight=4;overflow=hidden;points=[[0,0.5],[1,0.5]];portConstraint=eastwest;rotatable=0;whiteSpace=wrap;html=1;" parent="fUT23RtCe5cPwZf2VjJ1-78" vertex="1">
          <mxGeometry y="120" width="280" height="30" as="geometry" />
        </mxCell>
        <mxCell id="fUT23RtCe5cPwZf2VjJ1-87" style="edgeStyle=orthogonalEdgeStyle;rounded=0;orthogonalLoop=1;jettySize=auto;html=1;entryX=0;entryY=0.75;entryDx=0;entryDy=0;curved=1;strokeWidth=2;" parent="1" source="fUT23RtCe5cPwZf2VjJ1-18" target="fUT23RtCe5cPwZf2VjJ1-78" edge="1">
          <mxGeometry relative="1" as="geometry" />
        </mxCell>
        <mxCell id="fUT23RtCe5cPwZf2VjJ1-88" style="edgeStyle=orthogonalEdgeStyle;rounded=0;orthogonalLoop=1;jettySize=auto;html=1;entryX=0;entryY=0.5;entryDx=0;entryDy=0;curved=1;fillColor=#f8cecc;gradientColor=#ea6b66;strokeColor=#b85450;strokeWidth=2;" parent="1" source="fUT23RtCe5cPwZf2VjJ1-29" target="fUT23RtCe5cPwZf2VjJ1-82" edge="1">
          <mxGeometry relative="1" as="geometry" />
        </mxCell>
        <mxCell id="fUT23RtCe5cPwZf2VjJ1-89" style="edgeStyle=orthogonalEdgeStyle;rounded=0;orthogonalLoop=1;jettySize=auto;html=1;curved=1;fillColor=#ffcd28;gradientColor=#ffa500;strokeColor=#d79b00;strokeWidth=2;" parent="1" source="fUT23RtCe5cPwZf2VjJ1-29" target="fUT23RtCe5cPwZf2VjJ1-86" edge="1">
          <mxGeometry relative="1" as="geometry" />
        </mxCell>
      </root>
    </mxGraphModel>
  </diagram>
</mxfile>
